<?xml version="1.0" encoding="UTF-8"?><svg id="Capa_2" xmlns="http://www.w3.org/2000/svg" viewBox="0 0 31.5 35.93"><defs><style>.cls-1{fill:#9d9e9d;}</style></defs><g id="Capa_2-2"><g id="Capa_2-2"><g id="Capa_1-2"><path class="cls-1" d="m16,35.93H4.4c-2,0-2.9-.6-3.4-2.5-.5-2-.6-4-.8-6-.1-1.6,1.1-2.3,2.5-1.6.8.4,1.6.9,2.3,1.4,1.2.8,2.5,1,3.9.5,2-.8,2.8-2.8,2.1-4.9-.5-1.8-2.6-2.8-4.5-2.3-.9.2-1.7.8-2.5,1.2-.3.2-.6.4-1,.6-1.8,1-3,.3-3-1.7.2-2.8.4-5.7,1-8.5.4-1.6,1.1-2.2,2.7-2,2.3.2,4.6.5,6.9.7.3,0,.6.1.9.1.8,0,.9-.4.7-1-.3-.6-.7-1.2-1-1.9-1.1-2.1-.9-4.2.5-5.9C13.3.23,15.7-.47,17.9.33c2,.6,3.7,2.7,3.8,4.8.3.8,0,1.8-.5,2.6-.3.6-.7,1.2-.9,1.8-.4.9-.2,1.3.9,1.2,2-.2,3.9-.5,5.9-.6.5-.1.9-.1,1.3-.1,1.9,0,3,1.1,3.1,3v19.1c0,2.7-1.1,3.7-3.8,3.7-3.9.1-7.8.1-11.7.1h0Z"/></g></g></g></svg>