<?xml version="1.0" encoding="utf-8"?>
<!-- Generator: Adobe Illustrator 27.4.1, SVG Export Plug-In . SVG Version: 6.00 Build 0)  -->
<svg version="1.1" id="Capa_1" xmlns="http://www.w3.org/2000/svg" xmlns:xlink="http://www.w3.org/1999/xlink" x="0px" y="0px"
	 viewBox="0 0 24 24" style="enable-background:new 0 0 24 24;" xml:space="preserve">
<style type="text/css">
	.st0{fill:#FFFFFF;}
</style>
<path class="st0" d="M17,3H7C4.8,3,3,4.8,3,7v10c0,2.2,1.8,4,4,4h5.6v-7h-2.3v-2.7h2.3v-2c0-2.3,1.4-3.6,3.5-3.6
	c0.7,0,1.4,0,2.1,0.1v2.4h-1.4c-1.1,0-1.4,0.5-1.4,1.3v1.7h2.7L17.8,14h-2.4v7H17c2.2,0,4-1.8,4-4V7C21,4.8,19.2,3,17,3z"/>
</svg>
