<?xml version="1.0" encoding="utf-8"?>
<!-- Generator: Adobe Illustrator 27.4.1, SVG Export Plug-In . SVG Version: 6.00 Build 0)  -->
<svg version="1.1" id="Capa_1" xmlns="http://www.w3.org/2000/svg" xmlns:xlink="http://www.w3.org/1999/xlink" x="0px" y="0px"
	 viewBox="0 0 24 24" style="enable-background:new 0 0 24 24;" xml:space="preserve">
<style type="text/css">
	.st0{fill:#FFFFFF;}
</style>
<g>
	<circle class="st0" cx="12" cy="12" r="3.6"/>
	<path class="st0" d="M16.3,1.5L7.7,1.4c-3.4,0-6.2,2.8-6.2,6.2v8.6c0,3.4,2.8,6.2,6.2,6.2h8.6c3.4,0,6.2-2.8,6.2-6.2V7.7
		C22.5,4.3,19.7,1.5,16.3,1.5z M12,17.5c-3,0-5.5-2.5-5.5-5.5S9,6.5,12,6.5S17.5,9,17.5,12S15,17.5,12,17.5z M17.8,7.7
		c-0.7,0-1.4-0.6-1.4-1.4s0.6-1.4,1.4-1.4c0.7,0,1.4,0.6,1.4,1.4S18.6,7.7,17.8,7.7z"/>
</g>
</svg>
