<?xml version="1.0" encoding="utf-8"?>
<!-- Generator: Adobe Illustrator 27.4.1, SVG Export Plug-In . SVG Version: 6.00 Build 0)  -->
<svg version="1.1" id="Capa_1" xmlns="http://www.w3.org/2000/svg" xmlns:xlink="http://www.w3.org/1999/xlink" x="0px" y="0px"
	 viewBox="0 0 24 24" style="enable-background:new 0 0 24 24;" xml:space="preserve">
<style type="text/css">
	.st0{fill:#FFFFFF;}
</style>
<path class="st0" d="M6.7,1.9c-2.6,0-4.8,2.2-4.8,4.8v10.6c0,2.6,2.2,4.8,4.8,4.8h10.6c2.6,0,4.8-2.2,4.8-4.8V6.7
	c0-2.6-2.2-4.8-4.8-4.8H6.7z M6.2,7.7h11.5c0.1,0,0.2,0,0.2,0l-4.7,4.7c-0.7,0.7-1.9,0.7-2.6,0L6,7.7C6.1,7.7,6.2,7.7,6.2,7.7z
	 M5.3,8.4L8.9,12l-3.6,3.6c0-0.1,0-0.2,0-0.2V8.6C5.3,8.6,5.3,8.5,5.3,8.4z M18.7,8.4c0,0.1,0,0.2,0,0.2v6.7c0,0.1,0,0.2,0,0.2
	L15.1,12L18.7,8.4z M9.6,12.7l0.4,0.4c0.5,0.5,1.3,0.8,2,0.8c0.7,0,1.4-0.3,2-0.8l0.4-0.4l3.6,3.6c-0.1,0-0.2,0-0.2,0H6.2
	c-0.1,0-0.2,0-0.2,0L9.6,12.7z"/>
</svg>
