<?xml version="1.0" encoding="UTF-8"?><svg id="Capa_2" xmlns="http://www.w3.org/2000/svg" viewBox="0 0 29.6 35.94"><defs><style>.cls-1{fill:#9d9e9d;}</style></defs><g id="Capa_2-2"><g id="Capa_2-2"><g id="Capa_1-2"><path class="cls-1" d="m0,18.1V5.9C0,2,2,0,5.9,0h5.9c1.1,0,1.5.4,1.5,1.5v8.8c0,4.1,1.8,6,6,6,2.9,0,5.8.1,8.7,0,1.3,0,1.6.4,1.6,1.6v13c0,3-2,5-5,5-6.5.1-13,0-19.6,0-2.9,0-4.9-2.1-4.9-5.1C0,26.6,0,22.3,0,18.1Zm14.9,2.3h-6.2c-1,0-1.8.3-1.8,1.5s.8,1.6,1.8,1.6h12.1c1.1,0,2.1-.4,2.1-1.6s-1.1-1.3-2.1-1.3c-2.1-.2-4-.2-5.9-.2Zm-.3,9.7h2.7c1.3,0,2.5,0,3.8-.1.8-.1,1.5-.4,1.5-1.4s-.7-1.3-1.4-1.4c-.2,0-.4-.1-.7-.1h-11.8c-1,0-2,.3-2,1.5s1,1.5,2.1,1.5h5.8Z"/><path class="cls-1" d="m23.2,13.2h-4.9c-1.3,0-2-.7-2-2V1.3c0-.3,0-.7.3-.8.4-.1.5.2.8.4,3.7,3.7,7.4,7.4,11,11.1.2.2.8.4.5.9-.1.5-.7.3-1.1.3-1.5.1-3.1.1-4.6,0h0Z"/></g></g></g></svg>