<?xml version="1.0" encoding="UTF-8"?><svg id="Capa_2" xmlns="http://www.w3.org/2000/svg" viewBox="0 0 36 33.15"><defs><style>.cls-1{fill:#9d9e9d;}</style></defs><g id="Capa_2-2"><g id="Capa_2-2"><g id="Capa_1-2"><path class="cls-1" d="m0,19.52V5.84c.72-1.3,1.94-1.58,3.31-1.51h7.34c.43,0,.86,0,1.01-.5C12.6,1.45,14.54.44,16.85.08c2.52-.36,6.19.43,7.27,3.6.29.58.72.65,1.22.65,2.16,0,4.39.07,6.55,0,1.58-.07,3.02,0,4.1,1.3v13.68c-.5.07-1.08.22-1.58.22h-12.02c-.5,0-.86-.14-.94-.72-.22-.86-.79-1.3-1.66-1.37-1.15-.14-2.3-.14-3.38,0-.72.07-1.44.43-1.58,1.22-.22.79-.72.86-1.44.86H2.09c-.79.07-1.44-.22-2.09,0h0ZM18,4.33h3.96c.29,0,.58.07.72-.22s-.14-.5-.29-.72c-.29-.29-.58-.65-.94-.79-2.16-1.3-4.39-1.22-6.62-.14-.5.22-.94.65-1.3,1.15-.14.14-.29.36-.22.58.14.14.43.14.65.14h4.04Z"/><path class="cls-1" d="m0,31.76v-11.02c.43,0,.86.07,1.22.07h12.17c.72,0,1.15.14,1.3.86.14.65.65,1.08,1.37,1.15,1.22.22,2.52.14,3.74,0,.72-.07,1.3-.43,1.51-1.22.22-.72.72-.86,1.37-.86h10.44c.94,0,1.94.07,2.88.07v10.8c-.79,1.3-2.02,1.51-3.46,1.51H3.46c-1.44.14-2.66-.14-3.46-1.37h0Z"/><path class="cls-1" d="m17.93,21.75h-.43c-1.58,0-2.09-.79-1.66-2.3.14-.43.43-.72.94-.72.79,0,1.58-.07,2.45,0,.86.07,1.08.43,1.08,1.58,0,.72-.14,1.37-1.08,1.37-.5.07-.86.07-1.3.07h0Z"/></g></g></g></svg>