<?xml version="1.0" encoding="UTF-8"?><svg id="Capa_2" xmlns="http://www.w3.org/2000/svg" viewBox="0 0 36 35.05"><defs><style>.cls-1{fill:#9d9e9d;}</style></defs><g id="Capa_2-2"><g id="Capa_2-2"><g id="Capa_1-2"><path class="cls-1" d="m.02,28.72v-4.2c0-.62.16-1.17.78-1.48,2.34-.93,4.44-2.26,6.93-2.72,1.56-.31,3.04-.16,4.51.39,2.65,1.09,5.21,2.18,7.78,3.27,1.01.39,1.87,1.01,2.41,2.02.39.78.39,1.56-.08,2.18-.54.7-1.25.7-2.02.54-1.87-.39-3.66-1.17-5.45-1.79-.47-.16-.93-.23-1.4-.39-.39-.08-.62,0-.78.39s-.08.7.31.86c2.72,1.17,5.53,2.34,8.56,2.49,1.48.08,2.65-1.17,2.49-2.65-.16-1.56.47-2.34,1.71-3.04,2.18-1.17,4.2-2.57,6.3-3.89,1.32-.78,2.57-.62,3.42.54.78,1.09.7,2.34-.54,3.35-.93.78-1.95,1.48-2.96,2.18-3.58,2.41-7.16,4.83-10.74,7.24-1.79,1.17-3.5,1.4-5.53.47s-4.05-1.71-6.07-2.57c-2.34-1.01-4.44-.78-6.46.86-.39.31-.78.62-1.25.93-.39.31-.86.78-1.4.54-.62-.23-.54-.93-.54-1.48v-4.05h.02Z"/><path class="cls-1" d="m19.56,9.11v7.08c0,.7,0,1.17-.86.54-1.01-.7-2.26-1.01-3.5-1.01h-5.45c-.86,0-1.25-.31-1.25-1.25V1.17c0-.78.31-1.17,1.09-1.17h7.39c.47,0,.93.16,1.4.31.78.23,1.17.78,1.17,1.63v7.16h.01Z"/><path class="cls-1" d="m21.04,9.26V2.49c0-1.4.39-1.87,1.71-2.18.39-.08.78-.16,1.17-.16h6.93c.78,0,1.25.31,1.25,1.09v13.39c0,.86-.47,1.17-1.32,1.17h-5.45c-1.25,0-2.34.31-3.42.93-.23.16-.39.39-.7.31-.31-.16-.16-.54-.16-.78v-7.01h-.01Z"/></g></g></g></svg>